<svg height="511pt" viewBox="0 -78 511.99836 511" width="511pt" xmlns="http://www.w3.org/2000/svg"><g fill="#78cbec"><path d="m103.980469 218.417969-61.175781 12.707031c-19.230469 3.992188-38.058594-8.359375-42.054688-27.589844-3.992188-19.234375 8.359375-38.0625 27.589844-42.054687 4.867187-1.011719 9.882812-.929688 14.464844 0l61.175781 12.703125c12.214843 2.539062 20.0625 14.496094 17.523437 26.710937-1.886718 9.078125-8.992187 15.742188-17.523437 17.523438zm0 0"/><path d="m137.960938 151.722656c-33.140626-2.375-63.734376-14.164062-90.519532-33.597656-15.824218-11.484375-19.34375-33.617188-7.863281-49.441406 14.023437-19.328125 43.964844-18.910156 57.664063.507812 11.078124 15.707032 25.558593 26.964844 42.566406 35.679688zm0 0"/><path d="m149.445312 283.320312c-10.503906 5.164063-21.070312 9.769532-30.316406 17.121094-8.359375 6.648438-15.683594 14.09375-21.882812 22.96875-11.199219 16.023438-33.265625 19.9375-49.292969 8.738282-16.027344-11.195313-19.9375-33.265626-8.742187-49.289063 4.417968-6.320313 11.019531-10.726563 17.367187-14.917969 22.71875-15.003906 49.472656-23.933594 76.519531-26.621094zm0 0"/><path d="m408.019531 218.417969 61.171875 12.707031c19.234375 3.992188 38.0625-8.359375 42.058594-27.589844 3.992188-19.234375-8.359375-38.0625-27.59375-42.054687-4.867188-1.011719-9.882812-.929688-14.464844 0l-61.171875 12.703125c-12.214843 2.539062-20.0625 14.496094-17.523437 26.710937 1.882812 9.078125 8.992187 15.742188 17.523437 17.523438zm0 0"/><path d="m374.039062 151.722656c33.140626-2.375 63.730469-14.164062 90.519532-33.597656 15.824218-11.484375 19.34375-33.617188 7.863281-49.441406-14.027344-19.328125-43.964844-18.910156-57.664063.507812-11.082031 15.707032-25.5625 26.964844-42.566406 35.679688zm0 0"/><path d="m362.554688 283.320312c10.503906 5.164063 21.070312 9.769532 30.3125 17.121094 8.359374 6.648438 15.6875 14.09375 21.886718 22.96875 11.199219 16.023438 33.265625 19.9375 49.292969 8.738282 16.023437-11.195313 19.9375-33.265626 8.738281-49.289063-4.414062-6.320313-11.019531-10.726563-17.363281-14.917969-22.722656-15.003906-49.476563-23.933594-76.523437-26.621094zm0 0"/></g><path d="m475.597656 160.773438c-2.1875.050781-4.339844.289062-6.40625.707031l-61.171875 12.707031c-12.214843 2.535156-20.0625 14.492188-17.523437 26.707031 1.882812 9.078125 8.992187 15.742188 17.523437 17.523438l61.171875 12.707031c3.3125.6875 6.613282.878906 9.824219.648438.792969-7.589844 1.199219-15.445313 1.199219-23.578126 0-16.117187-1.570313-31.984374-4.617188-47.421874zm0 0" fill="#34b5e1"/><path d="m427.753906 58.121094c-5.023437 2.464844-9.53125 6.160156-12.996094 11.070312-11.078124 15.707032-25.558593 26.960938-42.566406 35.679688l1.847656 46.851562c32.636719-2.339844 62.796876-13.824218 89.289063-32.734375-8.695313-21.90625-20.648437-42.410156-35.574219-60.867187zm0 0" fill="#34b5e1"/><path d="m455.421875 267.941406c-22.722656-15.003906-49.476563-23.933594-76.523437-26.621094l-16.34375 42c10.503906 5.164063 21.070312 9.769532 30.3125 17.121094 8.359374 6.648438 15.6875 14.09375 21.886718 22.96875 3.300782 4.722656 7.550782 8.382813 12.304688 10.925782 18.527344-15.371094 32.246094-34.339844 41.101562-56.78125-3.832031-3.679688-8.339844-6.707032-12.738281-9.613282zm0 0" fill="#34b5e1"/><path d="m56.578125 267.941406c-4.402344 2.90625-8.910156 5.933594-12.742187 9.609375 8.855468 22.445313 22.578124 41.414063 41.101562 56.785157 4.757812-2.542969 9.007812-6.207032 12.308594-10.929688 6.199218-8.871094 13.523437-16.316406 21.882812-22.964844 9.246094-7.355468 19.8125-11.957031 30.316406-17.121094l-16.347656-42.003906c-27.046875 2.691406-53.800781 11.621094-76.519531 26.625zm0 0" fill="#34b5e1"/><path d="m103.980469 174.1875-61.175781-12.707031c-2.0625-.417969-4.21875-.65625-6.40625-.707031-3.042969 15.4375-4.617188 31.304687-4.617188 47.421874 0 8.136719.40625 15.988282 1.199219 23.578126 3.214843.234374 6.511719.039062 9.824219-.648438l61.175781-12.703125c8.527343-1.785156 15.636719-8.449219 17.523437-17.523437 2.539063-12.21875-5.308594-24.175782-17.523437-26.710938zm0 0" fill="#34b5e1"/><path d="m97.238281 69.191406c-3.464843-4.910156-7.972656-8.605468-12.992187-11.070312-14.929688 18.457031-26.882813 38.960937-35.574219 60.867187 26.492187 18.910157 56.648437 30.394531 89.289063 32.734375l1.847656-46.851562c-17.007813-8.71875-31.488282-19.972656-42.570313-35.679688zm0 0" fill="#34b5e1"/><path d="m256 .5c-109.609375 0-198.464844 92.988281-198.464844 207.695312 0 114.710938 88.855469 147.207032 198.464844 147.207032 109.605469 0 198.460938-32.496094 198.460938-147.207032 0-114.707031-88.855469-207.695312-198.460938-207.695312zm0 0" fill="#ffc9d3"/><path d="m88.441406 208.195312c0-109.265624 80.625-198.820312 183.011719-207.074218-5.101563-.410156-10.253906-.621094-15.453125-.621094-109.609375 0-198.464844 92.988281-198.464844 207.695312 0 114.710938 88.855469 147.207032 198.464844 147.207032 5.199219 0 10.351562-.074219 15.453125-.226563-102.386719-3.042969-183.011719-37.710937-183.011719-146.980469zm0 0" fill="#ff9db0"/><path d="m285.273438 247.492188c-3.210938-2.808594-8.09375-2.480469-10.902344.730468-1.503906 1.722656-3.792969 2.710938-6.277344 2.710938s-4.773438-.988282-6.277344-2.710938c-1.453125-1.660156-3.613281-2.640625-5.816406-2.632812-2.203125.007812-4.371094.964844-5.816406 2.632812-1.507813 1.722656-3.796875 2.710938-6.28125 2.710938-2.480469 0-4.769532-.988282-6.277344-2.710938-2.804688-3.210937-7.6875-3.539062-10.902344-.730468-3.210937 2.808593-3.539062 7.6875-.730468 10.902343 4.441406 5.078125 10.96875 7.992188 17.910156 7.992188 4.328125 0 8.496094-1.132813 12.097656-3.21875 3.597656 2.085937 7.765625 3.21875 12.09375 3.21875 6.941406 0 13.46875-2.914063 17.910156-7.992188 2.8125-3.214843 2.480469-8.09375-.730468-10.902343zm0 0" fill="#423e4f"/><path d="m174.664062 240.96875h-15.613281c-4.265625 0-7.726562 3.457031-7.726562 7.726562 0 4.265626 3.460937 7.726563 7.726562 7.726563h15.613281c4.265626 0 7.726563-3.460937 7.726563-7.726563 0-4.269531-3.460937-7.726562-7.726563-7.726562zm0 0" fill="#ff889e"/><path d="m176.769531 208.34375c-4.265625 0-7.726562 3.460938-7.726562 7.726562v13.210938c0 4.265625 3.460937 7.726562 7.726562 7.726562s7.726563-3.460937 7.726563-7.726562v-13.210938c0-4.265624-3.460938-7.726562-7.726563-7.726562zm0 0" fill="#423e4f"/><path d="m352.945312 240.96875h-15.609374c-4.269532 0-7.726563 3.457031-7.726563 7.726562 0 4.265626 3.457031 7.726563 7.726563 7.726563h15.609374c4.269532 0 7.726563-3.460937 7.726563-7.726563 0-4.269531-3.457031-7.726562-7.726563-7.726562zm0 0" fill="#ff889e"/><path d="m335.226562 237.007812c4.269532 0 7.726563-3.460937 7.726563-7.726562v-13.210938c0-4.265624-3.457031-7.726562-7.726563-7.726562-4.265624 0-7.722656 3.460938-7.722656 7.726562v13.210938c0 4.265625 3.457032 7.726562 7.722656 7.726562zm0 0" fill="#423e4f"/></svg>